<svg width="61" height="60" viewBox="0 0 61 60" fill="none" xmlns="http://www.w3.org/2000/svg">
<path d="M59.0007 2.61809e-08C59.0005 2.61809e-08 59.0003 2.61809e-08 59.0002 2.61809e-08H1C0.447876 -0.000124974 0.000125 0.447376 0 0.999503C0 0.999628 0 0.999878 0 1V21.0001H2.00001V2.00001H58.0002V24.0001H23.0001V26.0001H59.0002C59.5523 26.0002 60.0001 25.5527 60.0002 25.0006C60.0002 25.0005 60.0002 25.0002 60.0002 25.0001V1C60.0003 0.447876 59.5528 0.000125027 59.0007 2.61809e-08Z" fill="white"/>
<path d="M53.0013 5.00041H33.0012V7.00042H53.0013V5.00041Z" fill="white"/>
<path d="M56.0001 11.0004H36V13.0004H56.0001V11.0004Z" fill="white"/>
<path d="M52.0005 16.9993H32.0005V18.9993H52.0005V16.9993Z" fill="white"/>
<path d="M31.9203 8.62138C31.2357 6.97575 29.3467 6.19675 27.7012 6.88138C27.6731 6.89313 27.6451 6.90513 27.6173 6.91763L19.5088 11.1239C19.8286 10.4611 19.9964 9.73538 20.0001 8.99963C20.0001 6.23825 17.7614 3.99962 15 3.99962C12.2387 3.99962 10 6.23825 10 8.99963C10.0038 10.085 10.3642 11.1391 11.0257 11.9996H10.984C8.14552 12.0186 5.61164 13.7833 4.60951 16.4392L1.94001 25.6403C1.3045 27.2911 2.12751 29.1446 3.77839 29.7801C4.53114 30.0698 5.36552 30.0649 6.11489 29.7663C6.97589 29.4194 7.6459 28.7189 7.95427 27.8434L9.00003 24.5153V38.9882C8.13952 38.3268 7.0854 37.9665 6.00002 37.9626C3.24276 37.9585 1.00413 40.1903 1 42.9477C0.998003 44.2981 1.543 45.5916 2.51088 46.5334C0.974878 47.3181 0.00600004 48.8951 2.61808e-08 50.6199V58.9998C-0.000124974 59.5519 0.447376 59.9997 0.999503 59.9998C0.999628 59.9998 0.999878 59.9998 1 59.9998H11C11.5522 59.9999 11.9999 59.5524 12 59.0003C12 59.0001 12 58.9999 12 58.9998V50.6199C11.9952 49.2025 11.3367 47.8667 10.2155 46.9997H17.7847C16.6634 47.8667 16.0049 49.2025 16.0002 50.6199V58.9998C16 59.5519 16.4475 59.9997 16.9997 59.9998C16.9998 59.9998 17 59.9998 17.0002 59.9998H27.0002C27.5523 59.9999 28.0001 59.5524 28.0002 59.0003C28.0002 59.0001 28.0002 58.9999 28.0002 58.9998V50.6199C27.9942 48.8951 27.0253 47.3181 25.4893 46.5334C27.4637 44.6062 27.5021 41.4434 25.5749 39.469C24.3882 38.2531 22.6648 37.7237 21.0002 38.0637V17.607L30.1803 12.8404C31.8258 12.1559 32.6048 10.2669 31.9203 8.62138ZM15 5.99962C16.6569 5.99962 18.0001 7.34275 18.0001 8.99963C18.0001 10.6565 16.6569 11.9996 15 11.9996C13.3439 11.9979 12.0018 10.6558 12 8.99963C12 7.34275 13.3432 5.99962 15 5.99962ZM6.00002 39.9626C7.6569 39.9626 9.00003 41.3057 9.00003 42.9626C9.00003 44.6195 7.6569 45.9626 6.00002 45.9626C4.34314 45.9626 3.00001 44.6195 3.00001 42.9626C3.00176 41.3065 4.34389 39.9645 6.00002 39.9626ZM10 57.9998H2.00001V50.6199C2.00201 49.1735 3.17413 48.0015 4.62064 47.9997H7.3794C8.82578 48.0015 9.99803 49.1735 10 50.6199V57.9998ZM26.0001 50.6199V57.9998H18.0001V50.6199C18.0021 49.1735 19.1742 48.0015 20.6207 47.9997H23.3794C24.8259 48.0015 25.9981 49.1735 26.0001 50.6199ZM22.0001 39.9626C23.6562 39.9643 24.9983 41.3065 25.0001 42.9626C25.0001 44.6195 23.6569 45.9626 22.0001 45.9626C20.3432 45.9626 19.0001 44.6195 19.0001 42.9626C19.0001 41.3057 20.3432 39.9626 22.0001 39.9626ZM30.0905 10.2896C29.9566 10.6331 29.6817 10.9028 29.3356 11.0299L19.5397 16.1119C19.2082 16.2839 19.0001 16.6263 19.0001 16.9997V38.9882C17.1269 40.3732 16.478 42.8799 17.444 44.9997H16V27.9997H14V44.9997H10.556C10.8405 44.371 10.9904 43.6897 10.9963 42.9997H11V17.9997C10.9999 17.4473 10.552 16.9997 9.99978 16.9998C9.56315 16.9999 9.17703 17.2833 9.04603 17.6999L6.06002 27.2018C5.83377 27.8258 5.14439 28.1483 4.52039 27.9219C4.47664 27.9061 4.43376 27.8877 4.39201 27.8668C3.81514 27.5687 3.57026 26.8727 3.83351 26.2789L6.50289 17.0778C7.22277 15.229 8.9999 14.0083 10.9839 13.9996H18.0646C18.2248 13.9999 18.3828 13.9613 18.5251 13.8874L28.4641 8.72826C29.0603 8.47951 29.7476 8.73401 30.0378 9.31126C30.1917 9.61551 30.2108 9.97051 30.0905 10.2896Z" fill="white"/>
<path d="M41.4896 46.5338C43.4675 44.6068 43.5088 41.4412 41.5818 39.4633C39.6548 37.4854 36.4891 37.4441 34.5112 39.3712C32.5334 41.2982 32.4921 44.4638 34.4191 46.4417C34.4495 46.4728 34.4802 46.5035 34.5114 46.5338C32.9755 47.3186 32.0065 48.8956 32.0005 50.6203V59.0002C32.0004 59.5523 32.4479 60.0001 33 60.0002C33.0001 60.0002 33.0004 60.0002 33.0005 60.0002H43.0005C43.5526 60.0003 44.0004 59.5528 44.0005 59.0007C44.0005 59.0006 44.0005 59.0003 44.0005 59.0002V50.6203C43.9945 48.8956 43.0256 47.3186 41.4896 46.5338ZM38.0005 39.963C39.6574 39.963 41.0005 41.3062 41.0005 42.963C41.0005 44.6199 39.6574 45.963 38.0005 45.963C36.3436 45.963 35.0005 44.6199 35.0005 42.963C35.0022 41.3069 36.3444 39.9649 38.0005 39.963ZM42.0005 58.0002H34.0005V50.6203C34.0025 49.1739 35.1746 48.0019 36.6211 48.0002H39.3799C40.8263 48.0019 41.9985 49.1739 42.0005 50.6203V58.0002Z" fill="white"/>
<path d="M57.4904 46.5338C59.4683 44.6068 59.5095 41.4412 57.5825 39.4633C55.6555 37.4854 52.4899 37.4441 50.512 39.3712C48.5341 41.2982 48.4928 44.4638 50.4199 46.4417C50.4502 46.4728 50.481 46.5035 50.5121 46.5338C48.9762 47.3186 48.0072 48.8956 48.0012 50.6203V59.0002C48.0011 59.5523 48.4486 60.0001 49.0007 60.0002C49.0008 60.0002 49.0011 60.0002 49.0012 60.0002H59.0013C59.5534 60.0003 60.0011 59.5528 60.0013 59.0007C60.0013 59.0006 60.0013 59.0003 60.0013 59.0002V50.6203C59.9953 48.8956 59.0264 47.3186 57.4904 46.5338ZM54.0012 39.963C55.6581 39.963 57.0012 41.3062 57.0012 42.963C57.0012 44.6199 55.6581 45.963 54.0012 45.963C52.3444 45.963 51.0012 44.6199 51.0012 42.963C51.003 41.3069 52.3451 39.9649 54.0012 39.963ZM58.0012 58.0002H50.0012V50.6203C50.0032 49.1739 51.1754 48.0019 52.6219 48.0002H55.3806C56.827 48.0019 57.9992 49.1739 58.0012 50.6203V58.0002Z" fill="white"/>
</svg>
