<svg width="52" height="42" viewBox="0 0 52 42" fill="none" xmlns="http://www.w3.org/2000/svg">
<path d="M26 15.8C21.6918 15.8 18.2 19.2933 18.2 23.6C18.2 27.9081 21.6918 31.4 26 31.4C30.3072 31.4 33.8 27.9081 33.8 23.6C33.8 19.2933 30.3072 15.8 26 15.8ZM46.8 7.99995H40.56C39.702 7.99995 38.7774 7.33435 38.5065 6.52003L36.8935 1.67935C36.6215 0.865551 35.698 0.199951 34.84 0.199951H17.16C16.302 0.199951 15.3774 0.865551 15.1065 1.67987L13.4935 6.52055C13.2215 7.33435 12.298 7.99995 11.44 7.99995H5.2C2.34 7.99995 0 10.34 0 13.2V36.5999C0 39.4599 2.34 41.7999 5.2 41.7999H46.8C49.66 41.7999 52 39.4599 52 36.5999V13.2C52 10.34 49.66 7.99995 46.8 7.99995ZM26 36.5999C18.8204 36.5999 13 30.7796 13 23.6C13 16.4208 18.8204 10.6 26 10.6C33.1786 10.6 39 16.4208 39 23.6C39 30.7796 33.1786 36.5999 26 36.5999ZM44.98 16.8363C43.9754 16.8363 43.16 16.022 43.16 15.0163C43.16 14.0117 43.9754 13.1963 44.98 13.1963C45.9857 13.1963 46.8 14.0117 46.8 15.0163C46.8 16.022 45.9852 16.8363 44.98 16.8363Z" fill="#2C78F6" fill-opacity="0.31"/>
</svg>
