<svg width="21" height="21" viewBox="0 0 21 21" fill="none" xmlns="http://www.w3.org/2000/svg">
<path fill-rule="evenodd" clip-rule="evenodd" d="M0 8.87984C0 13.7768 4.03182 17.761 8.98774 17.761C11.2052 17.761 13.2377 16.9632 14.8068 15.6429L19.547 20.7461C19.6973 20.908 19.9028 20.9901 20.1088 20.9901C20.293 20.9901 20.4781 20.9243 20.6245 20.792C20.9347 20.5104 20.955 20.0337 20.6707 19.7273L15.8817 14.5715C17.1879 13.0291 17.9751 11.0436 17.9751 8.87984C17.9751 3.98307 13.9432 -0.000976562 8.98774 -0.000976562C4.03182 -0.000976562 0 3.98307 0 8.87984ZM1.52482 8.87984C1.52482 4.81383 4.87254 1.50543 8.98774 1.50543C13.1024 1.50543 16.4502 4.81383 16.4502 8.87984C16.4502 12.9462 13.1024 16.2541 8.98774 16.2541C4.87254 16.2541 1.52482 12.9462 1.52482 8.87984Z" fill="#909AAB"/>
</svg>
