<svg width="28" height="20" viewBox="0 0 28 20" fill="none" xmlns="http://www.w3.org/2000/svg">
<path fill-rule="evenodd" clip-rule="evenodd" d="M2.06848 19.5441C1.15799 16.4578 -1.95617 5.82618 1.83371 1.93962C5.34648 -1.66343 9.11876 0.796553 10.1766 1.59676C11.2339 2.39696 12.7618 3.36887 13.8191 3.31163C14.8764 3.2544 13.9368 4.2263 13.9368 4.2263C13.2319 4.25465 11.914 4.2124 9.47175 2.39749C6.99923 0.560129 4.46568 0.667643 2.65678 2.74036C0.800606 4.86604 0.458071 11.2174 3.24344 18.9728C3.53759 19.8014 2.86186 20.4877 2.06848 19.5441Z" fill="#CC2C2A"/>
<path fill-rule="evenodd" clip-rule="evenodd" d="M25.2624 19.5437C26.174 16.452 29.2909 5.80386 25.4977 1.91089C21.9811 -1.69805 18.2049 0.765684 17.1465 1.56749C16.0881 2.36877 14.5586 3.34228 13.5002 3.28504C12.4418 3.22781 13.3825 4.20078 13.3825 4.20078C14.0885 4.22967 15.4075 4.18687 17.852 2.36877C20.3272 0.52819 22.8635 0.636239 24.6741 2.71217C26.5319 4.84159 26.8739 11.2031 24.0858 18.9709C23.7922 19.8015 24.4684 20.4883 25.2624 19.5437Z" fill="#CC2C2A"/>
<path fill-rule="evenodd" clip-rule="evenodd" d="M5.51425 19.5845C4.87592 17.538 2.6937 10.4902 5.34931 7.91309C7.81083 5.52425 10.4549 7.15515 11.196 7.68576C11.9372 8.21638 13.0077 8.86039 13.7488 8.82242C14.49 8.78444 13.8313 9.42845 13.8313 9.42845C13.337 9.44717 12.4139 9.41883 10.7023 8.21585C8.96929 6.99789 7.19394 7.06903 5.92606 8.44318C4.62575 9.85263 4.38603 14.0633 6.33787 19.2053C6.54351 19.7551 6.07012 20.2098 5.51425 19.5845Z" fill="#4456A1"/>
<path fill-rule="evenodd" clip-rule="evenodd" d="M21.7684 19.5837C22.4073 17.534 24.5917 10.4744 21.9334 7.89357C19.4691 5.50098 16.8228 7.13455 16.0811 7.6657C15.3394 8.19686 14.2678 8.84247 13.5256 8.8045C12.7839 8.76652 13.4431 9.4116 13.4431 9.4116C13.9379 9.43032 14.8622 9.40198 16.5754 8.19686C18.3101 6.97676 20.0871 7.04844 21.3566 8.42472C22.6586 9.83684 22.8983 14.054 20.9442 19.2039C20.7381 19.7543 21.212 20.2101 21.7684 19.5837Z" fill="#4456A1"/>
<path fill-rule="evenodd" clip-rule="evenodd" d="M6.41588 14.57C5.9315 11.0856 7.57929 7.328 10.6462 9.76873C9.27273 9.52589 6.70124 9.29588 6.41588 14.57Z" fill="#4456A1"/>
</svg>
