<svg width="66" height="60" viewBox="0 0 66 60" fill="none" xmlns="http://www.w3.org/2000/svg">
<path d="M60.564 48.0545L49.9025 43.4367C49.6516 43.3113 49.3735 43.0047 49.1345 42.5956L56.2527 42.5902C56.3771 42.6022 59.3116 42.8705 61.6647 41.8593C62.556 41.4753 63.2193 40.7171 63.4855 39.7789C63.7538 38.832 63.5836 37.8295 63.0207 37.0266C60.9862 34.1313 56.2375 26.5658 56.0891 18.8924C56.0858 18.7604 55.656 5.71091 42.7691 5.60509C40.872 5.62036 39.1178 5.94218 37.5218 6.53564C37.1738 5.64873 36.6611 4.72364 35.8985 3.85309C33.6589 1.296 30.0229 0 25.0909 0C20.1589 0 16.5229 1.296 14.2822 3.85091C11.6989 6.79745 11.9389 10.3702 12 10.9691V16.7716C11.3018 17.5669 10.9091 18.5847 10.9091 19.6353V23.9989C10.9091 25.3265 11.5124 26.5647 12.5422 27.3905C13.5415 31.3473 15.6327 34.3287 16.3636 35.2855V38.8953C16.3636 39.9513 15.7876 40.92 14.8615 41.4262L5.12946 46.7345C1.96473 48.4625 0 51.7724 0 55.3767V60H48H50.1818H65.4545V55.9669C65.4545 52.5938 63.5804 49.5633 60.564 48.0545ZM48 57.8182H2.18182V55.3767C2.18182 52.572 3.71127 49.9942 6.17345 48.6524L15.9055 43.344C17.5342 42.4549 18.5455 40.7498 18.5455 38.8964V34.512L18.2913 34.2087C18.2651 34.1771 15.5913 30.9425 14.5713 26.5015L14.472 26.0695L14.1 25.8295C13.4684 25.4215 13.0909 24.7375 13.0909 24V19.6364C13.0909 19.0244 13.3505 18.4538 13.8218 18.0273L14.1818 17.7033V10.9091L14.172 10.7662C14.1687 10.7367 13.7978 7.71273 15.9229 5.28873C17.7305 3.22691 20.8156 2.18182 25.0909 2.18182C29.3509 2.18182 32.4295 3.21927 34.2393 5.26691C35.1393 6.28364 35.592 7.41927 35.8178 8.39455C35.8353 8.47091 35.8516 8.54618 35.8669 8.62145C35.8822 8.69891 35.8985 8.77636 35.9105 8.85055C35.9247 8.93564 35.9367 9.01636 35.9487 9.09709C35.9575 9.15491 35.9662 9.21382 35.9727 9.26945C35.9891 9.40473 36.0022 9.53564 36.0109 9.65673C36.012 9.66655 36.012 9.67527 36.012 9.68509C36.0196 9.80291 36.0251 9.91418 36.0284 10.0156C36.0284 10.0353 36.0284 10.0516 36.0295 10.0713C36.0316 10.1618 36.0316 10.248 36.0305 10.3233C36.0305 10.3342 36.0305 10.3451 36.0305 10.356C36.0262 10.6124 36.0087 10.7651 36.0087 10.7684L36 17.7033L36.36 18.0284C36.8313 18.4538 37.0909 19.0244 37.0909 19.6364V24C37.0909 24.9524 36.4669 25.7858 35.5396 26.0716L34.9964 26.2385L34.8218 26.7785C34.092 29.0487 33.0524 31.1455 31.7302 33.0109C31.4062 33.4702 31.0909 33.8771 30.8171 34.188L30.5455 34.4978V38.9978C30.5455 39.2738 30.5727 39.5444 30.6153 39.8105C30.624 39.8673 30.6393 39.9218 30.6502 39.9785C30.6927 40.1978 30.7495 40.4127 30.8193 40.6222C30.8356 40.6713 30.8531 40.7182 30.8716 40.7673C30.9567 40.9953 31.056 41.2156 31.1716 41.4273C31.1847 41.4513 31.1967 41.4764 31.2098 41.5004C31.368 41.7796 31.5502 42.0447 31.7596 42.2891L32.0084 42.5956H32.0509C32.4251 42.9644 32.8549 43.2851 33.3436 43.5295L43.7651 48.7396C46.3778 50.0444 48 52.6691 48 55.5895V57.8182ZM63.2727 57.8182H50.1818V55.5895C50.1818 51.8378 48.0971 48.4658 44.7425 46.788L37.2611 43.0462C37.4455 42.6251 37.4695 42.1429 37.308 41.6782C37.0407 40.9091 36.3425 40.4127 35.5298 40.4127H33.1113C33.0611 40.3244 33.0284 40.2273 32.988 40.1335C32.9335 40.008 32.8691 39.8847 32.8331 39.7527C32.7665 39.5105 32.7273 39.2575 32.7273 38.9978V35.3095C32.9771 35.004 33.24 34.656 33.5116 34.272C34.8633 32.3629 35.9465 30.2378 36.7342 27.9458C38.2735 27.24 39.2727 25.7182 39.2727 24V19.6364C39.2727 18.5858 38.88 17.568 38.1818 16.7727V10.9702C38.2102 10.6975 38.2713 9.804 38.0902 8.63673C39.4953 8.08473 41.0695 7.8 42.7702 7.78582C53.5058 7.87418 53.8975 18.4887 53.9084 18.936C54.0687 27.2084 59.0858 35.22 61.236 38.28C61.4204 38.5418 61.476 38.8713 61.3876 39.1822C61.3375 39.3611 61.1935 39.6862 60.804 39.8531C58.9713 40.6418 56.4851 40.4182 56.3575 40.4127H48.8487C48.1473 40.4127 47.508 40.7695 47.1382 41.3662C46.7695 41.9607 46.7345 42.6873 47.0444 43.3113C47.3858 43.9996 47.9891 44.9193 48.9807 45.4135L59.6138 50.0193C61.8709 51.1593 63.2727 53.4349 63.2727 55.9669V57.8182Z" fill="#2C78F6"/>
</svg>
