<svg width="35" height="35" viewBox="0 0 35 35" fill="none" xmlns="http://www.w3.org/2000/svg">
<path d="M5.80629 2.49994H30.9415C32.3205 2.49994 33.4391 3.61894 33.4391 5.00003V30C33.4391 31.3811 32.3205 32.5001 30.9415 32.5001H5.80629C4.42736 32.5001 3.30873 31.3811 3.30873 30V5.00003C3.30873 3.61894 4.42737 2.49994 5.80629 2.49994Z" fill="black" fill-opacity="0.01" stroke="#5B80B4"/>
<path d="M26.8239 21.33C26.8033 21.2857 26.7841 21.2489 26.7663 21.2194C26.4714 20.6882 25.9077 20.0362 25.0757 19.2631L25.0581 19.2454L25.0493 19.2368L25.0404 19.2279H25.0315C24.6539 18.8679 24.4148 18.6259 24.3147 18.502C24.1314 18.2659 24.0904 18.027 24.1905 17.7849C24.2613 17.602 24.527 17.2157 24.9872 16.6255C25.2292 16.3127 25.4209 16.0621 25.5624 15.8732C26.5833 14.516 27.0259 13.6487 26.8902 13.271L26.8374 13.1827C26.802 13.1296 26.7105 13.081 26.5632 13.0366C26.4155 12.9924 26.2267 12.9851 25.9965 13.0145L23.4475 13.0322C23.4062 13.0175 23.3472 13.0189 23.2704 13.0366C23.1937 13.0544 23.1553 13.0633 23.1553 13.0633L23.1109 13.0854L23.0757 13.112C23.0462 13.1297 23.0137 13.1606 22.9783 13.2049C22.943 13.249 22.9136 13.3008 22.89 13.3598C22.6125 14.0738 22.2969 14.7376 21.9428 15.3513C21.7245 15.7172 21.5239 16.0343 21.3408 16.3028C21.1579 16.5712 21.0045 16.769 20.8807 16.8957C20.7567 17.0226 20.6448 17.1243 20.5443 17.2011C20.4439 17.2779 20.3673 17.3103 20.3143 17.2985C20.2611 17.2866 20.211 17.2748 20.1636 17.263C20.0811 17.2099 20.0147 17.1376 19.9646 17.0462C19.9143 16.9547 19.8804 16.8396 19.8627 16.7009C19.8451 16.5622 19.8347 16.4428 19.8317 16.3425C19.829 16.2422 19.8303 16.1005 19.8362 15.9176C19.8424 15.7346 19.8451 15.6107 19.8451 15.5458C19.8451 15.3216 19.8495 15.0782 19.8583 14.8156C19.8672 14.553 19.8744 14.345 19.8805 14.1917C19.8865 14.0383 19.8893 13.8759 19.8893 13.7048C19.8893 13.5337 19.8789 13.3995 19.8583 13.3021C19.8379 13.2048 19.8067 13.1103 19.7656 13.0188C19.7242 12.9273 19.6636 12.8566 19.5841 12.8064C19.5045 12.7562 19.4055 12.7164 19.2876 12.6868C18.9749 12.6161 18.5766 12.5778 18.0926 12.5718C16.9951 12.56 16.2899 12.6309 15.9772 12.7843C15.8533 12.8492 15.7411 12.9377 15.6409 13.0498C15.5346 13.1796 15.5198 13.2505 15.5965 13.2622C15.9506 13.3152 16.2013 13.4421 16.3488 13.6427L16.402 13.749C16.4434 13.8257 16.4847 13.9615 16.526 14.1562C16.5672 14.3509 16.5939 14.5662 16.6056 14.8022C16.635 15.233 16.635 15.6018 16.6056 15.9086C16.5761 16.2155 16.5482 16.4544 16.5215 16.6256C16.4949 16.7967 16.4551 16.9353 16.402 17.0415C16.3488 17.1477 16.3135 17.2127 16.2957 17.2362C16.278 17.2598 16.2633 17.2746 16.2516 17.2805C16.1749 17.3098 16.0951 17.3248 16.0125 17.3248C15.9299 17.3248 15.8296 17.2835 15.7116 17.2008C15.5936 17.1182 15.4712 17.0046 15.3443 16.86C15.2174 16.7154 15.0743 16.5133 14.915 16.2537C14.7557 15.9941 14.5905 15.6873 14.4193 15.3333L14.2778 15.0765C14.1892 14.9113 14.0683 14.6708 13.9149 14.3552C13.7614 14.0394 13.6257 13.734 13.5077 13.439C13.4606 13.315 13.3897 13.2207 13.2953 13.1558L13.251 13.1292C13.2216 13.1056 13.1743 13.0806 13.1095 13.0539C13.0445 13.0273 12.9767 13.0082 12.9059 12.9964L10.4806 13.0141C10.2328 13.0141 10.0647 13.0702 9.97613 13.1823L9.94069 13.2354C9.92299 13.2649 9.91406 13.3121 9.91406 13.3771C9.91406 13.442 9.93176 13.5216 9.9672 13.616C10.3212 14.4481 10.7062 15.2505 11.1222 16.0235C11.5382 16.7965 11.8997 17.4192 12.2064 17.891C12.5133 18.3631 12.826 18.8087 13.1447 19.2275C13.4633 19.6465 13.6743 19.915 13.7775 20.033C13.8808 20.1511 13.962 20.2395 14.021 20.2985L14.2423 20.5109C14.3839 20.6525 14.5919 20.8222 14.8663 21.0198C15.1407 21.2176 15.4446 21.4123 15.7779 21.6042C16.1114 21.7958 16.4993 21.9522 16.9419 22.0731C17.3845 22.1942 17.8152 22.2428 18.2342 22.2193H19.2521C19.4585 22.2015 19.615 22.1366 19.7213 22.0245L19.7565 21.9802C19.7802 21.945 19.8023 21.8902 19.8228 21.8166C19.8435 21.7429 19.8538 21.6616 19.8538 21.5732C19.8477 21.3195 19.8671 21.0909 19.9112 20.8873C19.9553 20.6838 20.0056 20.5304 20.0618 20.4271C20.118 20.3239 20.1815 20.2367 20.2521 20.1661C20.3228 20.0953 20.3732 20.0525 20.4028 20.0377C20.4322 20.0229 20.4557 20.0128 20.4734 20.0067C20.615 19.9596 20.7816 20.0052 20.9736 20.144C21.1654 20.2827 21.3453 20.4539 21.5136 20.6574C21.6818 20.8611 21.8838 21.0896 22.1198 21.3433C22.356 21.5971 22.5624 21.7857 22.7394 21.9098L22.9163 22.016C23.0345 22.0869 23.1879 22.1518 23.3768 22.2108C23.5653 22.2698 23.7305 22.2845 23.8723 22.2551L26.1381 22.2197C26.3623 22.2197 26.5366 22.1826 26.6603 22.109C26.7843 22.0352 26.8579 21.954 26.8817 21.8656C26.9053 21.7771 26.9066 21.6767 26.8862 21.5645C26.8652 21.4526 26.8445 21.3743 26.8239 21.33Z" fill="#5B80B4"/>
</svg>
