<svg xmlns="http://www.w3.org/2000/svg"><symbol id="acc_login" viewBox="0 0 33 33"><circle cx="16.5" cy="16.5" r="15.5" stroke="#2C78F6" stroke-width="2"/><mask id="a" maskUnits="userSpaceOnUse" x="0" y="0" width="33" height="33"><circle cx="16.5" cy="16.5" r="16.5" fill="#fff"/></mask><g mask="url(#a)" stroke="#2C78F6" stroke-width="2"><circle cx="16.5" cy="11.895" r="3.988"/><path d="M27.395 29.93c0 5.775-4.846 10.512-10.895 10.512-6.049 0-10.895-4.737-10.895-10.512S10.45 19.42 16.5 19.42c6.049 0 10.895 4.736 10.895 10.511z"/></g></symbol><symbol id="education_blue" viewBox="0 0 61 60"><path d="M59 0H1a1 1 0 0 0-1 1v20h2V2h56v22H23v2h36a1 1 0 0 0 1-1V1a1 1 0 0 0-1-1z" fill="#2C78F6"/><path d="M53.001 5h-20v2h20V5zM56 11H36v2h20v-2zM52 17H32v2h20v-2zM31.92 8.621a3.227 3.227 0 0 0-4.303-1.703l-8.108 4.206c.32-.663.487-1.389.491-2.124a5 5 0 0 0-10 0 4.951 4.951 0 0 0 1.026 3h-.042a6.862 6.862 0 0 0-6.374 4.44l-2.67 9.2a3.203 3.203 0 0 0 4.175 4.126 3.23 3.23 0 0 0 1.84-1.922L9 24.514v14.473a4.953 4.953 0 0 0-3-1.025 4.993 4.993 0 0 0-3.49 8.57A4.607 4.607 0 0 0 0 50.62V59a1 1 0 0 0 1 1h10a1 1 0 0 0 1-1v-8.38A4.596 4.596 0 0 0 10.216 47h7.569A4.595 4.595 0 0 0 16 50.62V59a1 1 0 0 0 1 1h10a1 1 0 0 0 1-1v-8.38a4.607 4.607 0 0 0-2.51-4.087 4.996 4.996 0 0 0-4.49-8.47V17.608l9.18-4.767a3.227 3.227 0 0 0 1.74-4.219zM15 6a3 3 0 1 1 0 6 3 3 0 0 1 0-6zM6 39.963a3 3 0 1 1 0 6 3 3 0 0 1 0-6zM10 58H2v-7.38A2.624 2.624 0 0 1 4.62 48h2.76A2.624 2.624 0 0 1 10 50.62V58zm16-7.38V58h-8v-7.38A2.624 2.624 0 0 1 20.62 48h2.76A2.624 2.624 0 0 1 26 50.62zm-4-10.657a3 3 0 1 1 0 6 3 3 0 0 1 0-6zm8.09-29.673a1.286 1.286 0 0 1-.754.74l-9.796 5.082A1 1 0 0 0 19 17v21.988A4.932 4.932 0 0 0 17.444 45H16V28h-2v17h-3.444c.285-.629.434-1.31.44-2H11V18a1 1 0 0 0-1.954-.3L6.06 27.202a1.202 1.202 0 0 1-1.668.665 1.227 1.227 0 0 1-.558-1.588l2.669-9.201A4.831 4.831 0 0 1 10.983 14h7.082c.16 0 .318-.039.46-.113l9.94-5.159a1.23 1.23 0 0 1 1.573.583c.154.305.173.66.052.979zM41.49 46.534a5 5 0 1 0-6.979 0 4.607 4.607 0 0 0-2.51 4.086V59A1 1 0 0 0 33 60h10a1 1 0 0 0 1-1v-8.38a4.607 4.607 0 0 0-2.51-4.086zM38 39.963a3 3 0 1 1 0 6 3 3 0 0 1 0-6zM42 58h-8v-7.38A2.624 2.624 0 0 1 36.622 48h2.759A2.624 2.624 0 0 1 42 50.62V58zM57.49 46.534a5 5 0 1 0-6.978 0 4.607 4.607 0 0 0-2.51 4.086V59A1 1 0 0 0 49 60h10a1 1 0 0 0 1-1v-8.38a4.607 4.607 0 0 0-2.51-4.086zm-3.489-6.571a3 3 0 1 1 0 6 3 3 0 0 1 0-6zm4 18.037h-8v-7.38a2.624 2.624 0 0 1 2.62-2.62h2.76A2.624 2.624 0 0 1 58 50.62V58z" fill="#2C78F6"/></symbol><symbol id="education_white" viewBox="0 0 61 60"><path d="M59 0H1a1 1 0 0 0-1 1v20h2V2h56v22H23v2h36a1 1 0 0 0 1-1V1a1 1 0 0 0-1-1z" fill="#fff"/><path d="M53.001 5h-20v2h20V5zM56 11H36v2h20v-2zM52 17H32v2h20v-2zM31.92 8.621a3.227 3.227 0 0 0-4.303-1.703l-8.108 4.206c.32-.663.487-1.389.491-2.124a5 5 0 0 0-10 0 4.95 4.95 0 0 0 1.026 3h-.042a6.862 6.862 0 0 0-6.374 4.44l-2.67 9.2a3.203 3.203 0 0 0 4.175 4.126 3.23 3.23 0 0 0 1.84-1.923L9 24.515v14.473a4.952 4.952 0 0 0-3-1.025 4.993 4.993 0 0 0-3.49 8.57A4.607 4.607 0 0 0 0 50.62V59a1 1 0 0 0 1 1h10a1 1 0 0 0 1-1v-8.38A4.596 4.596 0 0 0 10.216 47h7.569A4.595 4.595 0 0 0 16 50.62V59a1 1 0 0 0 1 1h10a1 1 0 0 0 1-1v-8.38a4.607 4.607 0 0 0-2.51-4.087 4.996 4.996 0 0 0-4.49-8.47V17.608l9.18-4.767a3.227 3.227 0 0 0 1.74-4.219zM15 6a3 3 0 1 1 0 6 3 3 0 0 1 0-6zM6 39.963a3 3 0 1 1 0 6 3 3 0 0 1 0-6zM10 58H2v-7.38A2.624 2.624 0 0 1 4.62 48h2.76A2.624 2.624 0 0 1 10 50.62V58zm16-7.38V58h-8v-7.38A2.624 2.624 0 0 1 20.62 48h2.76A2.624 2.624 0 0 1 26 50.62zm-4-10.657a3 3 0 1 1 0 6 3 3 0 0 1 0-6zm8.09-29.673a1.286 1.286 0 0 1-.754.74l-9.796 5.082A1 1 0 0 0 19 17v21.988A4.933 4.933 0 0 0 17.444 45H16V28h-2v17h-3.444c.285-.629.434-1.31.44-2H11V18a1 1 0 0 0-1.954-.3L6.06 27.202a1.202 1.202 0 0 1-1.668.665 1.227 1.227 0 0 1-.558-1.588l2.669-9.201A4.831 4.831 0 0 1 10.983 14h7.082c.16 0 .318-.039.46-.113l9.94-5.159a1.23 1.23 0 0 1 1.573.583c.154.305.173.66.052.979zM41.49 46.534a5 5 0 1 0-6.979 0 4.607 4.607 0 0 0-2.51 4.086V59A1 1 0 0 0 33 60h10a1 1 0 0 0 1-1v-8.38a4.607 4.607 0 0 0-2.51-4.086zM38 39.963a3 3 0 1 1 0 6 3 3 0 0 1 0-6zM42 58h-8v-7.38A2.624 2.624 0 0 1 36.622 48h2.759A2.624 2.624 0 0 1 42 50.62V58zM57.49 46.534a5 5 0 1 0-6.978 0 4.607 4.607 0 0 0-2.51 4.086V59A1 1 0 0 0 49 60h10a1 1 0 0 0 1-1v-8.38a4.607 4.607 0 0 0-2.51-4.086zm-3.489-6.571a3 3 0 1 1 0 6 3 3 0 0 1 0-6zm4 18.037h-8v-7.38a2.624 2.624 0 0 1 2.62-2.62h2.76A2.624 2.624 0 0 1 58 50.62V58z" fill="#fff"/></symbol><symbol id="inst" viewBox="0 0 35 35"><path d="M4.84 2.5h25.135A2.499 2.499 0 0 1 32.473 5v25c0 1.381-1.119 2.5-2.498 2.5H4.84A2.499 2.499 0 0 1 2.342 30V5c0-1.381 1.119-2.5 2.498-2.5z" fill="#000" fill-opacity=".01" stroke="#CF446F"/><path d="M20.86 10h-6.72A4.144 4.144 0 0 0 10 14.14v6.72A4.144 4.144 0 0 0 14.14 25h6.72A4.144 4.144 0 0 0 25 20.86v-6.72A4.144 4.144 0 0 0 20.86 10zm2.81 10.86a2.812 2.812 0 0 1-2.81 2.809h-6.72a2.811 2.811 0 0 1-2.81-2.809v-6.72a2.812 2.812 0 0 1 2.81-2.81h6.72a2.812 2.812 0 0 1 2.809 2.81v6.72z" fill="#CF446F"/><path d="M17.5 13.635a3.87 3.87 0 0 0-3.865 3.865 3.87 3.87 0 0 0 3.865 3.865 3.87 3.87 0 0 0 3.865-3.865 3.87 3.87 0 0 0-3.865-3.865zm0 6.4a2.537 2.537 0 0 1-2.534-2.535 2.537 2.537 0 0 1 2.534-2.534 2.537 2.537 0 0 1 2.534 2.534 2.537 2.537 0 0 1-2.534 2.534zM21.527 12.507a.98.98 0 0 0-.976.976c0 .256.105.508.287.69a.983.983 0 0 0 .69.286.986.986 0 0 0 .69-.286.98.98 0 0 0 0-1.38.98.98 0 0 0-.69-.286z" fill="#CF446F"/></symbol><symbol id="photo" viewBox="0 0 52 42"><path d="M26 15.8a7.8 7.8 0 1 0 .001 15.601A7.8 7.8 0 0 0 26 15.8zM46.8 8h-6.24c-.858 0-1.783-.666-2.053-1.48l-1.613-4.84C36.62.865 35.698.2 34.84.2H17.16c-.858 0-1.783.666-2.053 1.48l-1.614 4.84C13.222 7.335 12.298 8 11.44 8H5.2C2.34 8 0 10.34 0 13.2v23.4c0 2.86 2.34 5.2 5.2 5.2h41.6c2.86 0 5.2-2.34 5.2-5.2V13.2c0-2.86-2.34-5.2-5.2-5.2zM26 36.6c-7.18 0-13-5.82-13-13s5.82-13 13-13c7.179 0 13 5.82 13 13s-5.821 13-13 13zm18.98-19.764a1.82 1.82 0 1 1 0-3.64 1.82 1.82 0 0 1 0 3.64z" fill="#2C78F6" fill-opacity=".31"/></symbol><symbol id="search" viewBox="0 0 21 21"><path fill-rule="evenodd" clip-rule="evenodd" d="M0 8.88c0 4.897 4.032 8.881 8.988 8.881 2.217 0 4.25-.798 5.819-2.118l4.74 5.103a.768.768 0 0 0 1.078.046.748.748 0 0 0 .046-1.065l-4.79-5.155a8.779 8.779 0 0 0 2.094-5.692c0-4.897-4.032-8.881-8.987-8.881C4.032-.001 0 3.983 0 8.879zm1.525 0c0-4.066 3.348-7.375 7.463-7.375 4.114 0 7.462 3.309 7.462 7.375s-3.348 7.374-7.462 7.374c-4.115 0-7.463-3.308-7.463-7.374z" fill="#909AAB"/></symbol><symbol id="stommarket" viewBox="0 0 28 20"><path fill-rule="evenodd" clip-rule="evenodd" d="M2.068 19.544c-.91-3.086-4.024-13.718-.234-17.604 3.512-3.603 7.285-1.143 8.343-.343 1.057.8 2.585 1.772 3.642 1.715 1.057-.058.118.914.118.914-.705.029-2.023-.014-4.465-1.829C6.999.56 4.466.667 2.657 2.74.8 4.866.458 11.217 3.243 18.973c.295.828-.381 1.515-1.175.571z" fill="#CC2C2A"/><path fill-rule="evenodd" clip-rule="evenodd" d="M25.262 19.544c.912-3.092 4.029-13.74.236-17.633-3.517-3.61-7.293-1.145-8.352-.344-1.058.802-2.587 1.775-3.646 1.718-1.058-.057-.117.916-.117.916.706.029 2.025-.014 4.469-1.832 2.475-1.84 5.011-1.733 6.822.343 1.858 2.13 2.2 8.491-.588 16.259-.294.83.382 1.517 1.176.573z" fill="#CC2C2A"/><path fill-rule="evenodd" clip-rule="evenodd" d="M5.514 19.584c-.638-2.046-2.82-9.094-.165-11.67 2.462-2.39 5.106-.759 5.847-.228.741.53 1.812 1.174 2.553 1.136.741-.038.082.606.082.606-.494.02-1.417-.01-3.129-1.212-1.733-1.218-3.508-1.147-4.776.227-1.3 1.41-1.54 5.62.412 10.762.206.55-.268 1.005-.824.38z" fill="#4456A1"/><path fill-rule="evenodd" clip-rule="evenodd" d="M21.768 19.584c.64-2.05 2.824-9.11.165-11.69-2.464-2.393-5.11-.76-5.852-.228-.742.53-1.813 1.176-2.555 1.139-.742-.038-.083.607-.083.607.495.018 1.42-.01 3.132-1.215 1.735-1.22 3.512-1.149 4.782.228 1.302 1.412 1.541 5.629-.413 10.779-.206.55.268 1.006.824.38zM6.416 14.57c-.485-3.484 1.163-7.242 4.23-4.801-1.373-.243-3.945-.473-4.23 4.801z" fill="#4456A1"/></symbol><symbol id="users_blue" viewBox="0 0 66 60"><path d="M60.564 48.054l-10.661-4.617c-.251-.126-.53-.432-.768-.841l7.118-.006c.124.012 3.059.28 5.412-.73a3.206 3.206 0 0 0 1.82-2.081 3.237 3.237 0 0 0-.464-2.752c-2.035-2.896-6.784-10.461-6.932-18.135-.003-.132-.433-13.181-13.32-13.287-1.897.015-3.651.337-5.247.93a9.07 9.07 0 0 0-1.623-2.682C33.658 1.296 30.022 0 25.09 0c-4.932 0-8.568 1.296-10.809 3.85C11.7 6.798 11.94 10.37 12 10.97v5.802a4.35 4.35 0 0 0-1.09 2.863V24c0 1.328.602 2.566 1.632 3.392 1 3.956 3.09 6.938 3.822 7.895v3.61a2.883 2.883 0 0 1-1.503 2.53L5.13 46.734A9.84 9.84 0 0 0 0 55.377V60H65.454v-4.033a8.798 8.798 0 0 0-4.89-7.913zM48 57.819H2.182v-2.441a7.654 7.654 0 0 1 3.991-6.725l9.733-5.308a5.066 5.066 0 0 0 2.64-4.448v-4.384l-.255-.303c-.026-.032-2.7-3.267-3.72-7.708l-.099-.431-.372-.24A2.177 2.177 0 0 1 13.09 24v-4.364c0-.612.26-1.182.732-1.609l.36-.324V10.91l-.01-.143c-.003-.03-.374-3.053 1.75-5.477 1.808-2.062 4.894-3.107 9.169-3.107 4.26 0 7.338 1.037 9.148 3.085.9 1.017 1.353 2.152 1.579 3.128.017.076.034.151.049.226.015.078.032.155.044.23a13.77 13.77 0 0 1 .062.418c.016.136.03.267.038.388l.001.028a10.469 10.469 0 0 1 .017.386c.003.09.003.177.002.252v.033c-.005.256-.022.41-.022.412L36 17.703l.36.325c.471.426.73.996.73 1.608V24a2.17 2.17 0 0 1-1.55 2.072l-.544.166-.174.54a22.835 22.835 0 0 1-3.092 6.233c-.324.46-.64.866-.913 1.177l-.271.31v4.5c0 .276.027.546.07.813.008.056.023.11.034.167a5.115 5.115 0 0 0 .222.79c.085.227.184.448.3.66l.038.072c.158.28.34.545.55.79l.248.306h.043c.374.368.804.69 1.293.934l10.421 5.21A7.614 7.614 0 0 1 48 55.59v2.228zm15.273 0H50.182V55.59a9.787 9.787 0 0 0-5.44-8.802l-7.48-3.742c.184-.42.207-.903.046-1.368a1.86 1.86 0 0 0-1.778-1.265H33.11c-.05-.089-.083-.186-.123-.28-.054-.125-.119-.248-.155-.38a2.845 2.845 0 0 1-.106-.755V35.31c.25-.306.513-.654.785-1.038a24.967 24.967 0 0 0 3.222-6.326A4.328 4.328 0 0 0 39.273 24v-4.364a4.35 4.35 0 0 0-1.091-2.863V10.97c.028-.273.09-1.166-.092-2.333 1.405-.552 2.98-.837 4.68-.851 10.736.088 11.127 10.703 11.138 11.15.16 8.272 5.178 16.284 7.328 19.344.184.262.24.591.152.902-.05.18-.194.504-.584.671-1.833.789-4.319.565-4.447.56H48.85a2 2 0 0 0-1.71.953 1.988 1.988 0 0 0-.095 1.945c.342.689.945 1.608 1.937 2.102l10.633 4.606a6.627 6.627 0 0 1 3.659 5.948v1.851z" fill="#2C78F6"/></symbol><symbol id="users_white" viewBox="0 0 66 60"><path d="M60.564 48.054l-10.661-4.617c-.251-.126-.53-.432-.768-.841l7.118-.006c.124.012 3.059.28 5.412-.73a3.206 3.206 0 0 0 1.82-2.081 3.237 3.237 0 0 0-.464-2.753c-2.035-2.895-6.784-10.46-6.932-18.134-.003-.132-.433-13.181-13.32-13.287-1.897.015-3.651.337-5.247.93a9.07 9.07 0 0 0-1.623-2.682C33.658 1.296 30.022 0 25.09 0c-4.932 0-8.568 1.296-10.809 3.85C11.7 6.798 11.94 10.37 12 10.97v5.802a4.35 4.35 0 0 0-1.09 2.863V24c0 1.328.602 2.566 1.632 3.392 1 3.956 3.09 6.938 3.822 7.895v3.61a2.883 2.883 0 0 1-1.503 2.53L5.13 46.734A9.84 9.84 0 0 0 0 55.377V60H65.454v-4.033a8.798 8.798 0 0 0-4.89-7.913zM48 57.819H2.182v-2.441a7.654 7.654 0 0 1 3.991-6.725l9.733-5.308a5.066 5.066 0 0 0 2.64-4.448v-4.384l-.255-.303c-.026-.032-2.7-3.267-3.72-7.708l-.099-.431-.372-.24A2.177 2.177 0 0 1 13.09 24v-4.364c0-.612.26-1.182.732-1.609l.36-.324V10.91l-.01-.143c-.003-.03-.374-3.053 1.75-5.477 1.808-2.062 4.894-3.107 9.169-3.107 4.26 0 7.338 1.037 9.148 3.085.9 1.017 1.353 2.152 1.579 3.128.017.076.034.151.049.226.015.078.032.155.044.23a13.77 13.77 0 0 1 .062.418c.016.136.03.267.038.388l.001.028a10.469 10.469 0 0 1 .017.386c.003.09.003.177.002.252v.033c-.005.256-.022.41-.022.412L36 17.703l.36.325c.471.426.73.996.73 1.608V24a2.17 2.17 0 0 1-1.55 2.072l-.544.166-.174.54a22.835 22.835 0 0 1-3.092 6.233c-.324.46-.64.866-.913 1.177l-.271.31v4.5c0 .276.027.546.07.813.008.056.023.11.034.167a5.115 5.115 0 0 0 .222.79c.085.227.184.448.3.66l.038.072c.158.28.34.545.55.79l.248.306h.043c.374.368.804.69 1.293.934l10.421 5.21A7.614 7.614 0 0 1 48 55.59v2.228zm15.273 0H50.182V55.59a9.787 9.787 0 0 0-5.44-8.802l-7.48-3.742c.184-.42.207-.903.046-1.368a1.86 1.86 0 0 0-1.778-1.265H33.11c-.05-.089-.083-.186-.123-.28-.054-.125-.119-.248-.155-.38a2.845 2.845 0 0 1-.106-.755V35.31c.25-.306.513-.654.785-1.038a24.967 24.967 0 0 0 3.222-6.326A4.328 4.328 0 0 0 39.273 24v-4.364a4.35 4.35 0 0 0-1.091-2.863V10.97c.028-.273.09-1.166-.092-2.333 1.405-.552 2.98-.837 4.68-.851 10.736.088 11.127 10.703 11.138 11.15.16 8.272 5.178 16.284 7.328 19.344.184.262.24.591.152.902-.05.18-.194.504-.584.671-1.833.789-4.319.565-4.447.56H48.85a2 2 0 0 0-1.71.953 1.988 1.988 0 0 0-.095 1.945c.342.689.945 1.608 1.937 2.102l10.633 4.606a6.627 6.627 0 0 1 3.659 5.948v1.851z" fill="#fff"/></symbol><symbol id="vk" viewBox="0 0 35 35"><path d="M5.806 2.5h25.136A2.499 2.499 0 0 1 33.439 5v25c0 1.381-1.118 2.5-2.497 2.5H5.806A2.499 2.499 0 0 1 3.31 30V5c0-1.381 1.118-2.5 2.497-2.5z" fill="#000" fill-opacity=".01" stroke="#5B80B4"/><path d="M26.824 21.33a1.183 1.183 0 0 0-.058-.11c-.295-.532-.858-1.184-1.69-1.957l-.018-.018-.009-.008-.009-.01h-.008c-.378-.36-.617-.601-.717-.725-.184-.236-.225-.475-.125-.717.071-.183.337-.57.797-1.16.242-.312.434-.563.575-.752 1.021-1.357 1.464-2.224 1.328-2.602l-.053-.088c-.035-.053-.127-.102-.274-.146a1.396 1.396 0 0 0-.566-.023l-2.55.018a.33.33 0 0 0-.177.005l-.115.026-.044.022-.035.027a.395.395 0 0 0-.098.093.607.607 0 0 0-.088.155 14.457 14.457 0 0 1-.947 1.991c-.219.366-.42.683-.602.952a4.578 4.578 0 0 1-.46.593 3.212 3.212 0 0 1-.337.305c-.1.077-.177.11-.23.098a6.478 6.478 0 0 1-.15-.036.59.59 0 0 1-.2-.217.971.971 0 0 1-.101-.345 3.815 3.815 0 0 1-.031-.358c-.003-.1-.002-.242.004-.425s.01-.307.01-.372c0-.224.003-.468.012-.73.01-.263.016-.471.023-.624.006-.154.008-.316.008-.487 0-.171-.01-.306-.03-.403a1.383 1.383 0 0 0-.093-.283.477.477 0 0 0-.182-.213c-.08-.05-.178-.09-.296-.12a5.898 5.898 0 0 0-1.195-.114c-1.098-.012-1.803.059-2.116.212a1.192 1.192 0 0 0-.336.266c-.106.13-.121.2-.044.212.354.053.604.18.752.38l.053.107c.041.077.083.212.124.407.041.195.068.41.08.646.029.431.029.8 0 1.107-.03.306-.058.545-.085.717a1.434 1.434 0 0 1-.225.61.153.153 0 0 1-.044.044.665.665 0 0 1-.24.045c-.082 0-.182-.041-.3-.124a2.12 2.12 0 0 1-.368-.341 4.546 4.546 0 0 1-.429-.606c-.16-.26-.324-.567-.496-.92l-.141-.258c-.089-.165-.21-.405-.363-.72-.154-.317-.29-.622-.407-.917a.583.583 0 0 0-.213-.283l-.044-.027a.605.605 0 0 0-.141-.075.946.946 0 0 0-.204-.058l-2.425.018c-.248 0-.416.056-.505.168l-.035.053a.286.286 0 0 0-.027.142c0 .065.018.145.053.239.354.832.74 1.635 1.155 2.407.416.774.778 1.396 1.084 1.868.307.472.62.918.939 1.337.318.418.53.687.633.805.103.118.184.206.243.265l.221.213c.142.142.35.311.624.509.275.198.579.392.912.584.333.192.721.348 1.164.47.442.12.873.169 1.292.145h1.018c.207-.018.363-.082.47-.195l.034-.044a.588.588 0 0 0 .067-.163.9.9 0 0 0 .03-.244 2.916 2.916 0 0 1 .058-.686c.044-.203.095-.357.15-.46a1.132 1.132 0 0 1 .342-.39.597.597 0 0 1 .07-.03c.142-.047.309-.002.5.137.192.139.372.31.54.513.169.204.37.433.607.686.236.254.442.443.62.567l.176.106c.119.07.272.136.46.195a.993.993 0 0 0 .496.044l2.266-.035c.224 0 .399-.037.522-.111.124-.074.198-.155.222-.243a.688.688 0 0 0 .004-.302 1.112 1.112 0 0 0-.062-.234z" fill="#5B80B4"/></symbol></svg>